# xmcd CD database file
#
# Track frame offsets:
#	150
#	33873
#	60834
#	92370
#	117594
#	151257
#	192447
#	223411
#	250285
#
# Disc length: 3832 seconds
#
# Revision: 0
# Processed by: cddbd v1.5.1PL2 Copyright (c) Steve Scherf et al.
# Submitted via: CDex 1.51
#
DISCID=750ef609
DTITLE=Oliver Gannon - That's What
DYEAR=2005
DGENRE=Jazz
TTITLE0=Jay's Blues
TTITLE1=Bright Mississippi
TTITLE2=Four Cats
TTITLE3=Brooklyn
TTITLE4=Goodbye Porkpie Hat
TTITLE5=Stella By Starlight
TTITLE6=That's What
TTITLE7=Talk Of The Town
TTITLE8=Soul Journey
EXTD=YEAR: 2005
EXTT0=
EXTT1=
EXTT2=
EXTT3=
EXTT4=
EXTT5=
EXTT6=
EXTT7=
EXTT8=
PLAYORDER=
